<?xml version="1.0" encoding="UTF-8"?>
<svg id="Layer_2" data-name="Layer 2" xmlns="http://www.w3.org/2000/svg" xmlns:xlink="http://www.w3.org/1999/xlink" viewBox="0 0 1025.43 355">
  <defs>
    <style>
      .cls-1 {
        fill: url(#linear-gradient-12);
      }

      .cls-1, .cls-2, .cls-3, .cls-4, .cls-5, .cls-6, .cls-7, .cls-8, .cls-9, .cls-10, .cls-11, .cls-12, .cls-13, .cls-14, .cls-15, .cls-16, .cls-17, .cls-18, .cls-19, .cls-20, .cls-21, .cls-22, .cls-23, .cls-24, .cls-25, .cls-26, .cls-27 {
        stroke-width: 0px;
      }

      .cls-2 {
        fill: url(#linear-gradient-17);
      }

      .cls-3 {
        fill: url(#linear-gradient-19);
      }

      .cls-4 {
        fill: url(#linear-gradient);
      }

      .cls-5 {
        fill: url(#linear-gradient-21);
      }

      .cls-6 {
        fill: url(#linear-gradient-6);
      }

      .cls-28 {
        fill: none;
        stroke: aqua;
        stroke-miterlimit: 10;
        stroke-width: 3px;
      }

      .cls-7 {
        fill: url(#linear-gradient-15);
      }

      .cls-8 {
        fill: url(#linear-gradient-11);
      }

      .cls-9 {
        fill: url(#linear-gradient-5);
      }

      .cls-29 {
        filter: url(#drop-shadow-1);
      }

      .cls-10 {
        fill: url(#linear-gradient-13);
      }

      .cls-11 {
        fill: url(#linear-gradient-23);
      }

      .cls-12 {
        fill: url(#linear-gradient-25);
      }

      .cls-13 {
        fill: url(#linear-gradient-16);
      }

      .cls-14 {
        fill: url(#linear-gradient-22);
      }

      .cls-15 {
        fill: url(#linear-gradient-20);
      }

      .cls-16 {
        fill: url(#linear-gradient-14);
      }

      .cls-17 {
        fill: url(#linear-gradient-2);
      }

      .cls-18 {
        fill: #f5bf42;
      }

      .cls-19 {
        fill: url(#linear-gradient-7);
      }

      .cls-20 {
        fill: url(#linear-gradient-3);
      }

      .cls-21 {
        fill: url(#linear-gradient-9);
      }

      .cls-22 {
        fill: url(#linear-gradient-8);
      }

      .cls-23 {
        fill: url(#linear-gradient-24);
      }

      .cls-24 {
        fill: url(#linear-gradient-26);
      }

      .cls-25 {
        fill: url(#linear-gradient-18);
      }

      .cls-26 {
        fill: url(#linear-gradient-10);
      }

      .cls-27 {
        fill: url(#linear-gradient-4);
      }
    </style>
    <filter id="drop-shadow-1" filterUnits="userSpaceOnUse">
      <feOffset dx="3" dy="3"/>
      <feGaussianBlur result="blur" stdDeviation="3"/>
      <feFlood flood-color="#000" flood-opacity=".67"/>
      <feComposite in2="blur" operator="in"/>
      <feComposite in="SourceGraphic"/>
    </filter>
    <linearGradient id="linear-gradient" x1="80.33" y1="-170.39" x2="219.88" y2="86.31" gradientTransform="translate(0 232)" gradientUnits="userSpaceOnUse">
      <stop offset="0" stop-color="#02d7f8"/>
      <stop offset="1" stop-color="#0876fc"/>
    </linearGradient>
    <linearGradient id="linear-gradient-2" x1="120.47" y1="-192.2" x2="260.01" y2="64.5" gradientTransform="translate(0 232)" gradientUnits="userSpaceOnUse">
      <stop offset="0" stop-color="#02d7f8"/>
      <stop offset="1" stop-color="#0876fc"/>
    </linearGradient>
    <linearGradient id="linear-gradient-3" x1="145.02" y1="-205.55" x2="284.56" y2="51.15" gradientTransform="translate(0 232)" gradientUnits="userSpaceOnUse">
      <stop offset="0" stop-color="#02d7f8"/>
      <stop offset="1" stop-color="#0876fc"/>
    </linearGradient>
    <linearGradient id="linear-gradient-4" x1="181.17" y1="-225.2" x2="320.72" y2="31.5" gradientTransform="translate(0 232)" gradientUnits="userSpaceOnUse">
      <stop offset="0" stop-color="#02d7f8"/>
      <stop offset="1" stop-color="#0876fc"/>
    </linearGradient>
    <linearGradient id="linear-gradient-5" x1="24.71" y1="-140.15" x2="164.25" y2="116.55" gradientTransform="translate(0 232)" gradientUnits="userSpaceOnUse">
      <stop offset="0" stop-color="#02d7f8"/>
      <stop offset="1" stop-color="#0876fc"/>
    </linearGradient>
    <linearGradient id="linear-gradient-6" x1="223.57" y1="-248.26" x2="363.12" y2="8.45" gradientTransform="translate(0 232)" gradientUnits="userSpaceOnUse">
      <stop offset="0" stop-color="#02d7f8"/>
      <stop offset="1" stop-color="#0876fc"/>
    </linearGradient>
    <linearGradient id="linear-gradient-7" x1="114.62" y1="-189.02" x2="254.16" y2="67.68" gradientTransform="translate(0 232)" gradientUnits="userSpaceOnUse">
      <stop offset="0" stop-color="#02d7f8"/>
      <stop offset="1" stop-color="#0876fc"/>
    </linearGradient>
    <linearGradient id="linear-gradient-8" x1="78.14" y1="-169.2" x2="217.69" y2="87.5" gradientTransform="translate(0 232)" gradientUnits="userSpaceOnUse">
      <stop offset="0" stop-color="#02d7f8"/>
      <stop offset="1" stop-color="#0876fc"/>
    </linearGradient>
    <linearGradient id="linear-gradient-9" x1="66.37" y1="-162.79" x2="205.91" y2="93.91" gradientTransform="translate(0 232)" gradientUnits="userSpaceOnUse">
      <stop offset="0" stop-color="#02d7f8"/>
      <stop offset="1" stop-color="#0876fc"/>
    </linearGradient>
    <linearGradient id="linear-gradient-10" x1="40.16" y1="-148.55" x2="179.71" y2="108.15" gradientTransform="translate(0 232)" gradientUnits="userSpaceOnUse">
      <stop offset="0" stop-color="#02d7f8"/>
      <stop offset="1" stop-color="#0876fc"/>
    </linearGradient>
    <linearGradient id="linear-gradient-11" x1="137.99" y1="-201.73" x2="277.53" y2="54.97" gradientTransform="translate(0 232)" gradientUnits="userSpaceOnUse">
      <stop offset="0" stop-color="#02d7f8"/>
      <stop offset="1" stop-color="#0876fc"/>
    </linearGradient>
    <linearGradient id="linear-gradient-12" x1="76.91" y1="-168.53" x2="216.45" y2="88.17" gradientTransform="translate(0 232)" gradientUnits="userSpaceOnUse">
      <stop offset="0" stop-color="#02d7f8"/>
      <stop offset="1" stop-color="#0876fc"/>
    </linearGradient>
    <linearGradient id="linear-gradient-13" x1="45.88" y1="-151.66" x2="185.42" y2="105.04" gradientTransform="translate(0 232)" gradientUnits="userSpaceOnUse">
      <stop offset="0" stop-color="#02d7f8"/>
      <stop offset="1" stop-color="#0876fc"/>
    </linearGradient>
    <linearGradient id="linear-gradient-14" x1="6.68" y1="-130.34" x2="146.22" y2="126.36" gradientTransform="translate(0 232)" gradientUnits="userSpaceOnUse">
      <stop offset="0" stop-color="#02d7f8"/>
      <stop offset="1" stop-color="#0876fc"/>
    </linearGradient>
    <linearGradient id="linear-gradient-15" x1="22.21" y1="-138.79" x2="161.75" y2="117.91" gradientTransform="translate(0 232)" gradientUnits="userSpaceOnUse">
      <stop offset="0" stop-color="#02d7f8"/>
      <stop offset="1" stop-color="#0876fc"/>
    </linearGradient>
    <linearGradient id="linear-gradient-16" x1="7.83" y1="-130.98" x2="147.38" y2="125.72" gradientTransform="translate(0 232)" gradientUnits="userSpaceOnUse">
      <stop offset="0" stop-color="#02d7f8"/>
      <stop offset="1" stop-color="#0876fc"/>
    </linearGradient>
    <linearGradient id="linear-gradient-17" x1="132.47" y1="-198.73" x2="272.02" y2="57.97" gradientTransform="translate(0 232)" gradientUnits="userSpaceOnUse">
      <stop offset="0" stop-color="#02d7f8"/>
      <stop offset="1" stop-color="#0876fc"/>
    </linearGradient>
    <linearGradient id="linear-gradient-18" x1="168.78" y1="-218.46" x2="308.32" y2="38.24" gradientTransform="translate(0 232)" gradientUnits="userSpaceOnUse">
      <stop offset="0" stop-color="#02d7f8"/>
      <stop offset="1" stop-color="#0876fc"/>
    </linearGradient>
    <linearGradient id="linear-gradient-19" x1="180.99" y1="-225.1" x2="320.53" y2="31.6" gradientTransform="translate(0 232)" gradientUnits="userSpaceOnUse">
      <stop offset="0" stop-color="#02d7f8"/>
      <stop offset="1" stop-color="#0876fc"/>
    </linearGradient>
    <linearGradient id="linear-gradient-20" x1="207.06" y1="-239.28" x2="346.61" y2="17.42" gradientTransform="translate(0 232)" gradientUnits="userSpaceOnUse">
      <stop offset="0" stop-color="#02d7f8"/>
      <stop offset="1" stop-color="#0876fc"/>
    </linearGradient>
    <linearGradient id="linear-gradient-21" x1="108.99" y1="-185.96" x2="248.54" y2="70.74" gradientTransform="translate(0 232)" gradientUnits="userSpaceOnUse">
      <stop offset="0" stop-color="#02d7f8"/>
      <stop offset="1" stop-color="#0876fc"/>
    </linearGradient>
    <linearGradient id="linear-gradient-22" x1="169.55" y1="-218.88" x2="309.1" y2="37.82" gradientTransform="translate(0 232)" gradientUnits="userSpaceOnUse">
      <stop offset="0" stop-color="#02d7f8"/>
      <stop offset="1" stop-color="#0876fc"/>
    </linearGradient>
    <linearGradient id="linear-gradient-23" x1="200.58" y1="-235.75" x2="340.12" y2="20.94" gradientTransform="translate(0 232)" gradientUnits="userSpaceOnUse">
      <stop offset="0" stop-color="#02d7f8"/>
      <stop offset="1" stop-color="#0876fc"/>
    </linearGradient>
    <linearGradient id="linear-gradient-24" x1="239.25" y1="-256.77" x2="378.79" y2="-.07" gradientTransform="translate(0 232)" gradientUnits="userSpaceOnUse">
      <stop offset="0" stop-color="#02d7f8"/>
      <stop offset="1" stop-color="#0876fc"/>
    </linearGradient>
    <linearGradient id="linear-gradient-25" x1="224.62" y1="-248.82" x2="364.16" y2="7.88" gradientTransform="translate(0 232)" gradientUnits="userSpaceOnUse">
      <stop offset="0" stop-color="#02d7f8"/>
      <stop offset="1" stop-color="#0876fc"/>
    </linearGradient>
    <linearGradient id="linear-gradient-26" x1="238.88" y1="-256.57" x2="378.42" y2=".13" gradientTransform="translate(0 232)" gradientUnits="userSpaceOnUse">
      <stop offset="0" stop-color="#02d7f8"/>
      <stop offset="1" stop-color="#0876fc"/>
    </linearGradient>
  </defs>
  <rect class="cls-28" x="1.5" y="1.5" width="1022.43" height="352" rx="50.83" ry="50.83"/>
  <g class="cls-29">
    <g>
      <path class="cls-4" d="M163.96,211.58c-3.13,2.2-6.63,3.64-10.46,4.31-4.18,1.02-8.63,1.53-13.34,1.53-13.61,0-24.32-4.05-32.17-12.17-7.67-8.12-11.51-19.27-11.51-33.46s3.84-25.44,11.51-33.72c8.19-8.28,18.92-12.42,32.17-12.42s23.8,4.15,32.17,12.42c7.85,8.45,11.76,19.68,11.76,33.72,0,6.09-.78,11.66-2.35,16.73-1.57,5.23-4.01,9.73-7.33,13.43l9.93,9.12-4.98,4.82c-1.74,1.69-3.57,2.41-5.5,2.15-1.91-.25-3.49-.89-4.71-1.9l-5.21-4.56h.02ZM150.89,199.66l-9.41-8.87,3.13-3.3c1.39-1.53,3.27-2.44,5.62-2.79,2.35-.34,4.32,0,5.89,1.02l5.23,4.05c1.22-2.2,2.27-4.9,3.13-8.12.17-1.53.39-3.08.66-4.69.25-1.61.39-3.33.39-5.2,0-9.46-2.27-16.98-6.8-22.57-4.54-5.23-10.73-7.86-18.57-7.86s-14.22,2.62-18.57,7.86c-4.37,5.23-6.53,12.76-6.53,22.57s2.18,17.24,6.53,22.31c4.35,5.23,10.54,7.86,18.57,7.86,2.62,0,4.54-.16,5.75-.51,1.91-.48,3.57-1.07,4.98-1.75h0Z"/>
      <path class="cls-17" d="M210.82,214.01c-4.13.25-8.6.18-13.4-.18-4.81-.36-7.21-3.33-7.21-8.91v-53.39h6.75c1.62,0,3.06.61,4.32,1.82,1.25,1.21,1.88,2.66,1.88,4.36v8.17h7.68v2.54c0,1.82-.63,3.3-1.88,4.45s-2.74,1.72-4.5,1.72h-1.32v26.88c0,2.07,1.25,3.08,3.74,3.08h3.94v9.45h0Z"/>
      <path class="cls-20" d="M246.6,199.12h9.38c-1.37,5.08-3.99,8.96-7.87,11.63-3.88,2.79-8.75,4.18-14.62,4.18-7.13,0-12.68-2.25-16.67-6.72-3.99-4.36-5.99-10.6-5.99-18.7s1.93-13.81,5.81-18.16c3.99-4.48,9.56-6.72,16.67-6.72,7.5,0,13.3,2.18,17.43,6.54,3.99,4.48,5.99,10.71,5.99,18.7v2c0,.61-.07,1.03-.19,1.28h-32.41c.12,3.76,1.07,6.54,2.81,8.35,1.62,1.94,4.06,2.9,7.31,2.9,2.12,0,3.94-.43,5.43-1.26.37-.11.71-.33,1.03-.64.3-.3.66-.64,1.03-1,.12-.36.59-.85,1.4-1.46.81-.62,1.96-.92,3.45-.92h.01ZM224.12,184.95h19.11c-.25-3.26-1.12-5.69-2.62-7.27-1.62-1.69-3.94-2.54-6.94-2.54-2.74,0-4.99.85-6.75,2.54-1.74,1.71-2.67,4.12-2.79,7.27h-.01Z"/>
      <path class="cls-27" d="M293.47,199.12h9.38c-1.37,5.08-3.99,8.96-7.87,11.63-3.88,2.79-8.75,4.18-14.62,4.18-7.13,0-12.68-2.25-16.67-6.72-3.99-4.36-5.99-10.6-5.99-18.7s1.93-13.81,5.81-18.16c3.99-4.48,9.56-6.72,16.67-6.72,7.5,0,13.3,2.18,17.43,6.54,2.25,2.66,3.88,5.76,4.87,9.27h-13.12c-.63-1.21-1.25-2.12-1.88-2.72-1.62-1.69-3.93-2.54-6.94-2.54-2.76,0-4.99.85-6.75,2.54-2.25,2.43-3.37,6.41-3.37,11.99s1.12,9.51,3.37,11.81c1.62,1.94,4.06,2.9,7.31,2.9,2.12,0,3.94-.43,5.43-1.26.37-.11.71-.33,1.03-.64.3-.3.66-.64,1.03-1,.25-.36.74-.85,1.51-1.46.74-.64,1.86-.94,3.37-.94h0Z"/>
      <path class="cls-9" d="M69.89,126.84s-32.19,53.91,6.01,105.1c0-.02-24.78-50.3-6.01-105.1Z"/>
      <path class="cls-6" d="M329.11,224.82s36.49-52.4-7.11-101.95c.02,0,28.33,48.73,7.11,101.95Z"/>
      <path class="cls-19" d="M316.26,252.41s-30.13,40.09-77.09,37.03c0,0-43.48,1.31-90.38-22.09l6.06-15.48s46.39,24.37,79.87,24.96c0,0,48.44,7.92,81.54-24.42h0Z"/>
      <path class="cls-22" d="M291.65,283.67s-37.1,31.36-91.53,22.93c0,0-55.45-6.97-111.25-52.19l7.04-10.15s54.57,40.68,89.65,47.91c-.02.02,50.01,20.37,106.09-8.5Z"/>
      <path class="cls-21" d="M252.1,305.76s-30.02,13.06-59,10.53c0,0-40.45-5.46-59.41-18.12l3.03-6.63s35.59,17.32,63.4,19.91c-.02.02,34.97.95,51.98-5.69Z"/>
      <path class="cls-26" d="M211.07,320.2s-58.49,5.13-95.88-21.14l3.52-4.35s24.41,22.36,92.36,25.49h0Z"/>
      <path class="cls-8" d="M326.33,228.94s-9.63,37.74-62.62,41.92c0,0-36.98,2.3-84.39-16.75l8.06-15.96s54.87,25.85,102.89,13.91c0-.02,18.5-3.33,36.07-23.13h-.01Z"/>
      <path class="cls-1" d="M173.42,247.95c3.96,0,7.18-3.11,7.18-6.95s-3.21-6.95-7.18-6.95-7.18,3.11-7.18,6.95,3.21,6.95,7.18,6.95Z"/>
      <path class="cls-10" d="M141.33,263.17c4.13,0,7.48-3.25,7.48-7.25s-3.35-7.25-7.48-7.25-7.48,3.25-7.48,7.25,3.35,7.25,7.48,7.25Z"/>
      <path class="cls-16" d="M83.6,250.49c4.18,0,7.57-3.28,7.57-7.33s-3.39-7.33-7.57-7.33-7.57,3.28-7.57,7.33,3.39,7.33,7.57,7.33Z"/>
      <path class="cls-7" d="M130.34,295.36c1.85,0,3.35-1.45,3.35-3.25s-1.5-3.25-3.35-3.25-3.35,1.45-3.35,3.25,1.5,3.25,3.35,3.25Z"/>
      <path class="cls-13" d="M112.72,297.09c1.79,0,3.23-1.4,3.23-3.13s-1.45-3.13-3.23-3.13-3.23,1.4-3.23,3.13,1.45,3.13,3.23,3.13Z"/>
      <path class="cls-2" d="M81.99,100.84s30.77-39.63,77.69-35.85c0,0,43.5-.66,90.01,23.45l-6.3,15.38s-45.98-25.06-79.46-26.18c-.02,0-48.32-8.64-81.93,23.19h-.01Z"/>
      <path class="cls-25" d="M107.09,69.96s37.59-30.79,91.89-21.55c0,0,55.33,7.81,110.4,53.86l-7.19,10.04s-53.91-41.5-88.87-49.25c0,0-49.69-21.13-106.22,6.91h-.01Z"/>
      <path class="cls-3" d="M147,48.45s30.24-12.6,59.17-9.64c0,0,40.37,6.07,59.1,19.01l-3.13,6.58s-35.32-17.86-63.06-20.88c0,.02-34.97-1.44-52.08,4.94h0Z"/>
      <path class="cls-15" d="M188.24,34.64s58.56-4.25,95.52,22.6l-3.59,4.3s-24.03-22.75-91.94-26.9h0Z"/>
      <path class="cls-5" d="M71.53,124.16s10.24-37.59,63.28-40.97c0,0,37.01-1.74,84.12,18.03l-8.31,15.83s-54.45-26.69-102.65-15.47c-.02,0-18.57,3.05-36.44,22.58Z"/>
      <path class="cls-14" d="M224.62,121.36c3.96,0,7.18-3.11,7.18-6.95s-3.21-6.95-7.18-6.95-7.18,3.11-7.18,6.95,3.21,6.95,7.18,6.95Z"/>
      <path class="cls-11" d="M256.96,107.2c4.13,0,7.48-3.25,7.48-7.25s-3.35-7.25-7.48-7.25-7.48,3.25-7.48,7.25,3.35,7.25,7.48,7.25Z"/>
      <path class="cls-23" d="M314.47,120.93c4.18,0,7.57-3.28,7.57-7.33s-3.39-7.33-7.57-7.33-7.57,3.28-7.57,7.33,3.39,7.33,7.57,7.33Z"/>
      <path class="cls-12" d="M268.52,67.18c1.85,0,3.35-1.45,3.35-3.25s-1.5-3.25-3.35-3.25-3.35,1.45-3.35,3.25,1.5,3.25,3.35,3.25Z"/>
      <path class="cls-24" d="M286.15,65.51c1.79,0,3.23-1.4,3.23-3.13s-1.45-3.13-3.23-3.13-3.23,1.4-3.23,3.13,1.45,3.13,3.23,3.13Z"/>
    </g>
    <g>
      <path class="cls-18" d="M443.88,260.99v-129.21h-50.96v-30.03h138.77v30.03h-50.96v129.21h-36.85Z"/>
      <path class="cls-18" d="M594.47,262.81c-12.89,0-24.38-2.73-34.46-8.19-10.09-5.46-18.01-12.93-23.77-22.41-5.77-9.48-8.64-20.28-8.64-32.42s2.88-23.16,8.64-32.64,13.68-16.91,23.77-22.29c10.08-5.38,21.57-8.08,34.46-8.08s24.64,2.69,34.81,8.08c10.16,5.39,18.12,12.82,23.89,22.29,5.76,9.48,8.64,20.36,8.64,32.64s-2.88,23.13-8.64,32.53c-5.77,9.41-13.73,16.83-23.89,22.29-10.16,5.46-21.76,8.19-34.81,8.19h0ZM594.47,233.69c6.06,0,11.41-1.33,16.04-3.98,4.62-2.65,8.34-6.56,11.15-11.71,2.8-5.15,4.21-11.22,4.21-18.2s-1.4-13.19-4.21-18.2c-2.81-5-6.52-8.83-11.15-11.49-4.63-2.65-9.9-3.98-15.81-3.98s-11.22,1.33-15.92,3.98c-4.7,2.66-8.46,6.48-11.26,11.49-2.81,5-4.21,11.07-4.21,18.2s1.4,13.04,4.21,18.2c2.8,5.16,6.56,9.06,11.26,11.71,4.7,2.66,9.93,3.98,15.7,3.98h-.01Z"/>
      <path class="cls-18" d="M738.02,262.81c-11.53,0-21.92-2.62-31.17-7.85s-16.53-12.55-21.84-21.95-7.96-20.47-7.96-33.21,2.65-23.81,7.96-33.21,12.59-16.72,21.84-21.95,19.64-7.85,31.17-7.85c10.31,0,19.34,2.27,27.07,6.82s13.72,11.45,17.97,20.7c4.24,9.25,6.37,21.08,6.37,35.49s-2.05,26.09-6.14,35.49c-4.09,9.41-9.97,16.34-17.63,20.82-7.66,4.47-16.87,6.71-27.64,6.71h0ZM743.93,233.69c5.91,0,11.22-1.33,15.92-3.98s8.45-6.56,11.26-11.71c2.8-5.15,4.21-11.22,4.21-18.2s-1.4-13.19-4.21-18.2c-2.81-5-6.56-8.83-11.26-11.49-4.7-2.65-10.01-3.98-15.92-3.98s-11,1.33-15.7,3.98c-4.7,2.66-8.46,6.48-11.26,11.49-2.81,5-4.21,11.07-4.21,18.2s1.4,13.04,4.21,18.2c2.8,5.16,6.56,9.06,11.26,11.71,4.7,2.66,9.93,3.98,15.7,3.98ZM776.24,260.99v-25.02l.68-36.4-2.28-36.17v-71.2h35.49v168.79h-33.9.01Z"/>
      <path class="cls-18" d="M900.9,262.81c-12.89,0-24.38-2.73-34.46-8.19-10.09-5.46-18.01-12.93-23.77-22.41-5.77-9.48-8.64-20.28-8.64-32.42s2.88-23.16,8.64-32.64,13.68-16.91,23.77-22.29c10.08-5.38,21.57-8.08,34.46-8.08s24.64,2.69,34.81,8.08c10.16,5.39,18.12,12.82,23.89,22.29,5.76,9.48,8.64,20.36,8.64,32.64s-2.88,23.13-8.64,32.53c-5.77,9.41-13.73,16.83-23.89,22.29-10.16,5.46-21.76,8.19-34.81,8.19h0ZM900.9,233.69c6.06,0,11.41-1.33,16.04-3.98,4.62-2.65,8.34-6.56,11.15-11.71,2.8-5.15,4.21-11.22,4.21-18.2s-1.4-13.19-4.21-18.2c-2.81-5-6.52-8.83-11.15-11.49-4.63-2.65-9.9-3.98-15.81-3.98s-11.22,1.33-15.92,3.98c-4.7,2.66-8.46,6.48-11.26,11.49-2.81,5-4.21,11.07-4.21,18.2s1.4,13.04,4.21,18.2c2.8,5.16,6.56,9.06,11.26,11.71,4.7,2.66,9.93,3.98,15.7,3.98h-.01Z"/>
    </g>
  </g>
</svg>